<svg width="26" height="30" fill="none" xmlns="http://www.w3.org/2000/svg"><path d="M23.046 0H13.59c-2.28 0-4.135 1.962-4.135 4.375v13.75c0 .345.264.625.59.625.327 0 .591-.28.591-.625V4.375c0-1.722 1.326-3.125 2.955-3.125h7.092a3.23 3.23 0 00-.592 1.875V21.25h-4.136c-.327 0-.591.28-.591.625s.264.625.59.625h4.728c.326 0 .59-.28.59-.625V3.125c0-1.034.796-1.875 1.774-1.875.326 0 .59-.28.59-.625S23.372 0 23.046 0z" fill="#fff"/><path d="M18.318 17.5H7.682c-2.281 0-4.137 1.962-4.137 4.375v3.75c0 1.723-1.326 3.125-2.954 3.125-.326 0-.591.28-.591.625S.265 30 .59 30h11.82c2.28 0 4.136-1.962 4.136-4.375v-5c0-1.034.795-1.875 1.772-1.875.326 0 .591-.28.591-.625s-.265-.625-.59-.625zm-2.954 3.125v5c0 1.722-1.326 3.125-2.955 3.125H3.483a4.484 4.484 0 001.244-3.125v-3.75c0-1.723 1.326-3.125 2.955-3.125h8.274a3.23 3.23 0 00-.592 1.875z" fill="#fff"/><path d="M18.318 17.5h-1.181c-.327 0-.591.28-.591.625s.264.625.59.625h1.182c.978 0 1.773.841 1.773 1.875v1.25c0 .345.265.625.59.625.327 0 .592-.28.592-.625v-1.25c0-1.723-1.326-3.125-2.955-3.125zM23.045 0c-.326 0-.59.28-.59.625s.264.625.59.625c.978 0 1.773.841 1.773 1.875v.625h-4.136c-.326 0-.591.28-.591.625s.265.625.59.625h4.728c.326 0 .59-.28.59-.625v-1.25C26 1.403 24.675 0 23.046 0zm-4.727 3.75H12.41c-.326 0-.59.28-.59.625s.264.625.59.625h5.91c.325 0 .59-.28.59-.625s-.265-.625-.59-.625zm0 3.75H12.41c-.326 0-.59.28-.59.625s.264.625.59.625h5.91c.325 0 .59-.28.59-.625s-.265-.625-.59-.625zm0 3.75H12.41c-.326 0-.59.28-.59.625s.264.625.59.625h5.91c.325 0 .59-.28.59-.625s-.265-.625-.59-.625zm0 3.75H12.41c-.326 0-.59.28-.59.625s.264.625.59.625h5.91c.325 0 .59-.28.59-.625S18.644 15 18.32 15zm-4.727 6.25h-7.09c-.327 0-.592.28-.592.625s.265.625.591.625h7.091c.326 0 .59-.28.59-.625s-.264-.625-.59-.625zm0 3.75h-7.09c-.327 0-.592.28-.592.625s.265.625.591.625h7.091c.326 0 .59-.28.59-.625s-.264-.625-.59-.625z" fill="#fff"/></svg>