<svg viewBox="0 0 30 30" width="28" height="30" fill="none" xmlns="http://www.w3.org/2000/svg"><path d="M14 0c-.935 0-1.815.38-2.577.982a2.642 2.642 0 00-1.137-.268c-1.428 0-2.6 1.128-2.6 2.5 0 .766.368 1.46.94 1.92-.076.187-.15.374-.221.57a16.633 16.633 0 00-2.832-.291C3.302 5.398 1.389 6 .489 7.5c-.555.923-.611 2.031-.302 3.147.308 1.117.96 2.275 1.88 3.449.236.301.495.602.766.904-.271.303-.53.603-.766.904-.92 1.174-1.572 2.321-1.88 3.438-.294 1.062-.25 2.128.232 3.024a2.344 2.344 0 00-.163.848c0 1.373 1.173 2.5 2.6 2.5.911 0 1.718-.46 2.183-1.15 1.027.043 2.158-.05 3.366-.267.137.378.287.734.441 1.082.598 1.353 1.32 2.467 2.17 3.282C11.869 29.475 12.893 30 14 30s2.132-.525 2.983-1.34c.852-.814 1.573-1.928 2.17-3.28.155-.349.305-.705.442-1.083.397.072.782.134 1.16.178.258 1.119 1.295 1.965 2.531 1.965 1.427 0 2.6-1.128 2.6-2.5v-.011c.68-.333 1.253-.808 1.626-1.429.553-.923.61-2.042.301-3.158-.308-1.117-.96-2.264-1.88-3.438a18.038 18.038 0 00-.766-.904c.271-.302.53-.603.766-.904.92-1.174 1.572-2.332 1.88-3.449.309-1.116.253-2.224-.301-3.147-.9-1.499-2.814-2.102-5.085-2.087-.88.006-1.83.109-2.832.29a17.284 17.284 0 00-.441-1.094c-.598-1.352-1.32-2.466-2.17-3.28C16.131.512 15.107 0 14 0zm0 1.429c.636 0 1.279.284 1.938.915.66.63 1.301 1.602 1.846 2.835.117.265.229.548.337.837-1.32.33-2.703.801-4.121 1.395a29.027 29.027 0 00-4.12-1.395c.04-.108.085-.208.127-.313.09.01.185.011.279.011 1.427 0 2.6-1.128 2.6-2.5 0-.456-.123-.88-.349-1.25.496-.358.981-.535 1.463-.535zm-3.714.714c.624 0 1.114.471 1.114 1.071s-.49 1.072-1.114 1.072c-.625 0-1.115-.472-1.115-1.072 0-.6.49-1.071 1.115-1.071zM5.573 6.84c.728.005 1.538.084 2.403.235a26.364 26.364 0 00-.813 4.13 28.157 28.157 0 00-3.308 2.734 16.361 16.361 0 01-.592-.703c-.839-1.07-1.398-2.093-1.637-2.958-.239-.865-.178-1.536.14-2.065.516-.86 1.813-1.386 3.807-1.373zm16.854 0c1.994-.012 3.29.513 3.808 1.373.317.53.378 1.2.139 2.065-.24.865-.798 1.888-1.637 2.958-.18.23-.385.468-.592.703a28.2 28.2 0 00-3.32-2.735 26.485 26.485 0 00-.8-4.13c.865-.15 1.674-.229 2.402-.234zM9.438 7.4c.873.217 1.788.492 2.728.837-.565.276-1.128.567-1.695.881-.57.317-1.113.658-1.648.994.16-.964.373-1.87.615-2.712zm9.135 0c.241.837.445 1.743.604 2.7a36.248 36.248 0 00-1.648-.982 36.496 36.496 0 00-1.695-.881c.944-.347 1.864-.62 2.74-.837zM14 8.984c.92.405 1.855.856 2.786 1.373.932.517 1.81 1.066 2.635 1.63.095.972.15 1.975.15 3.013 0 1.034-.056 2.045-.15 3.013a33.775 33.775 0 01-5.433 3.003 34.367 34.367 0 01-2.774-1.384 33.783 33.783 0 01-2.635-1.619A31.18 31.18 0 018.43 15c0-1.033.056-2.034.15-3.002a33.43 33.43 0 012.635-1.64A33.755 33.755 0 0114 8.983zm0 3.516c-1.427 0-2.6 1.128-2.6 2.5s1.173 2.5 2.6 2.5 2.6-1.128 2.6-2.5-1.173-2.5-2.6-2.5zm-7 .647A34.06 34.06 0 006.942 15c0 .627.025 1.246.059 1.853A25.61 25.61 0 014.865 15 25.6 25.6 0 017 13.147zm14 0A25.6 25.6 0 0123.135 15 25.612 25.612 0 0121 16.853c.034-.607.059-1.226.059-1.853 0-.631-.025-1.242-.058-1.853zM3.855 16.071c.959.931 2.077 1.842 3.32 2.724.173 1.47.43 2.859.789 4.118-.912.16-1.75.236-2.507.234-.04-1.34-1.198-2.433-2.6-2.433-.488 0-.944.14-1.335.369-.065-.395-.04-.852.104-1.373.24-.865.798-1.877 1.637-2.947.18-.23.386-.457.592-.692zm20.29 0c.206.235.411.462.592.692.839 1.07 1.398 2.082 1.637 2.947.239.864.178 1.546-.14 2.076-.18.3-.44.554-.8.759a2.65 2.65 0 00-2.148-1.105c-1.102 0-2.05.68-2.426 1.618-.273-.034-.549-.084-.836-.134a26.36 26.36 0 00.801-4.13c1.243-.88 2.361-1.792 3.32-2.723zM8.823 19.9c.533.333 1.08.655 1.648.97.566.315 1.13.617 1.695.893-.944.346-1.864.62-2.74.837a23.953 23.953 0 01-.603-2.7zm10.354 0a24.03 24.03 0 01-.604 2.712 26.666 26.666 0 01-2.739-.849 37.177 37.177 0 001.695-.893 36.576 36.576 0 001.648-.97zm-16.32 2.243c.624 0 1.114.471 1.114 1.071s-.49 1.072-1.114 1.072c-.625 0-1.115-.472-1.115-1.072 0-.6.49-1.071 1.115-1.071zm11.155.446a29.128 29.128 0 004.12 1.384c-.109.294-.229.579-.348.848-.545 1.233-1.186 2.204-1.845 2.835-.66.631-1.303.915-1.939.915-.636 0-1.279-.284-1.938-.915-.66-.63-1.301-1.602-1.846-2.835a15.587 15.587 0 01-.337-.837 28.882 28.882 0 004.133-1.395zm9.274.28c.624 0 1.115.47 1.115 1.07 0 .6-.49 1.072-1.115 1.072-.624 0-1.114-.471-1.114-1.071s.49-1.072 1.114-1.072z" fill="#fff"/></svg>