<svg width="40" height="30" fill="none" xmlns="http://www.w3.org/2000/svg"><path d="M39.023 9.746l-.65-1.406H24.796l-.697 1.238c-.183.326-.638 1.325-.932 3.584-.305-.398-.62-.82-.944-1.254-1.92-2.573-4.095-5.49-7.098-7.266-1.566-.927-3.614-1.714-5.619-2.157A20.593 20.593 0 005.14 2H3.748C1.68 2 0 3.646 0 5.67c0 2.023 1.681 3.67 3.748 3.67h1.49c2.208 0 3.586.583 5.268 2.23 1.396 1.367 2.543 3.227 3.757 5.196 2.02 3.275 4.31 6.987 8.397 9.322C24.88 27.357 27.17 28 29.464 28c1.606 0 3.205-.317 4.751-.943a8.899 8.899 0 004.499-3.993C39.555 21.54 40 19.747 40 17.88c0-5.584-.748-7.637-.977-8.133zm-26.11.848c-.22-.247-.446-.486-.68-.715-2.161-2.117-4.164-2.931-6.995-2.931h-1.49c-.72 0-1.305-.572-1.305-1.278 0-.706.584-1.278 1.305-1.278H5.14c1.688 0 3.142.274 3.828.426 1.937.429 3.72 1.176 4.894 1.871a12.44 12.44 0 011.746 1.267l-2.694 2.638zm20.37 14.252a10.121 10.121 0 01-3.819.762c-1.788 0-3.658-.492-5.573-1.586-4.71-2.69-6.749-7.613-9.48-11.512l2.919-2.857c3.269 3.619 5.565 8.279 8.013 8.279 0-5.608.896-7.2.896-7.2h10.558s.76 1.645.76 7.147c0 2.741-1.221 5.731-4.275 6.967z" fill="#fff"/></svg>