<svg width="36" height="30" fill="none" xmlns="http://www.w3.org/2000/svg"><path fill-rule="evenodd" clip-rule="evenodd" d="M35.941 6.484c-.138-.48-.49-.754-.858-1.012-.428-.24-.713-.611-1.183-.811-.223-.278-.784-.441-.966-.607-.09-.082-.09-.03-.215-.1-.425-.244-.802-.56-1.288-.71-.675-.612-1.512-1.071-2.254-1.62a4.968 4.968 0 01-1.18-.708c-.45-.22-.575-.742-1.182-.812-.008-.061-.017-.119-.107-.1-.145.031-.206.143-.43.1-.807.455-1.378 1.131-2.147 1.62-.939.567-1.876 1.134-2.79 1.723-.484.254-.841.625-1.396.81-.13.25-.37.396-.645.506-.23.103-.4.523-.644.304-1.349-.55-2.424-1.36-3.65-2.025-.48-.46-1.294-.602-1.826-1.013-.77-.218-1.288-.675-2.254-.71-.686-.04-.984.29-1.61.305-2.708 1.7-5.998 2.85-8.802 4.457-.146.369-.14.881-.43 1.114-.145 1.588-.073 3.247 0 4.861.202 4.556-.36 9.77.321 14.482.062.786-.129 1.811.109 2.431.028.209.286.203.428.304.266-.132.521.227.536 0 .246.275.194.832.86.71.682.102.822-.306 1.181-.508.332-.227.618-.496.859-.809.685-.434 1.195-1.033 1.824-1.52.604-.51 1.194-1.034 1.827-1.519.322-.234.667-.45.965-.708.436-.129.623-.495 1.074-.609 1.485.692 2.73 1.61 4.187 2.33.69.394 1.387.784 1.931 1.317.42.112.778.28 1.073.505.316-.026.331.23.646.204-.05.316.229.322.535.303.824-.305 1.444-.8 2.041-1.317.679-.439 1.362-.874 1.932-1.417.839-.29 1.222-1.008 2.04-1.316.24-.315.722-.4.966-.71.378-.184.623-.492 1.074-.607 1.45.893 2.458 2.204 3.758 3.24.372.189.495.61.965.71.291.298.497.68.967.81.351.241.36.807.966.81.404.192.492.684 1.181.607.417-.19.545-.514.644-1.013.104-.521-.079-1.094 0-1.62.173-.377.349-.752.43-1.215.572-4.492.182-9.887.43-14.686.193-.681.1-1.6.107-2.43.004-.854.13-1.7 0-2.33zM2.337 28.361c-.055-.053.08-.13.109-.1.054.051-.078.128-.109.1zm31.35-16.71c-.267 4.535.034 9.704-.217 14.38-1.43-.573-2.468-1.518-3.757-2.228-1.4-.57-2.23-1.677-3.757-2.126-.906.157-1.337.764-2.04 1.113-.525.483-1.242.786-1.716 1.317-1.301.765-2.38 1.74-3.544 2.633-.414-.08-.477-.495-.75-.708-.196-.29-.612-.37-.753-.709-.854-.344-1.415-.96-2.362-1.215-.815-.38-1.588-.798-2.47-1.115-.247-.305-.672-.446-.858-.81-.335-.19-.592-.455-1.074-.506-.707-.061-1.138.14-1.502.405-.185.399-.78.411-.966.81-.386.208-.58.601-.967.81-.292.3-.496.68-.966.81-.533.646-1.255 1.112-1.718 1.823-.348.246-.562.618-.86.911-.071.236-.354.273-.427.507-.126.03-.31.574-.323.103.31-.399-.13-.955-.107-1.419-.114-6.238-.312-12.4-.644-18.433-.023-.325.382-.246.537-.404.16-.119.439-.126.537-.305.46-.14.706-.48 1.18-.607.774-.42 1.44-.937 2.254-1.317.703-.485 1.66-.73 2.363-1.215.541-.062.667-.518 1.288-.506.352-.209.675-.445 1.074-.608 1.088.762 2.325 1.385 3.435 2.126.547.395 1.213.68 1.718 1.114.633.28.996.816 1.718 1.013 1.023-.115 1.712-.546 2.36-1.013.676-.444 1.404-.837 2.041-1.316 1.428-.779 2.576-1.825 3.972-2.633a.761.761 0 01.323-.204c.645.506 1.2 1.096 2.039 1.419.72.435 1.43.88 2.255 1.215.388.51.962.847 1.503 1.216.455.414.928.811 1.503 1.114-.102 1.471-.232 2.996-.323 4.557zM27.78 9.117c-.6-.582-.743-1.592-1.502-2.025-.65-.005-.742.516-.86 1.012.067.68.458 1.053.644 1.622a5.409 5.409 0 01-2.147.404c-.277.348-.894.372-.86 1.012.163.188.238.327.54.406.284.075.738-.057 1.071 0 .67-.18 1.305-.39 2.04-.506.51.396.725 1.07 1.074 1.62.4.5.487 1.296 1.61 1.114.126-.186.281-.343.43-.506-.182-1.112-.909-1.71-1.289-2.634.591-.05.958-.312 1.504-.405.503-.131.965-.305.966-.91-.358-1.39-2.192-.269-3.22-.204zm-1.932 2.33c-.437.478-1.613.755-1.181 1.72.512.253.792-.24 1.181-.405.31-.281.782-.41.644-1.113-.225-.058-.306-.25-.644-.202zm-13.956.1c-.669.402-2.211.88-1.504 1.926.687.04.994-.28 1.29-.608.505-.13.715-.54.858-1.013-.174-.14-.264-.359-.644-.304zm2.898 2.431c-.023-.246-.293-.456-.43-.607-.17-.187-.312-.495-.643-.506-.368-.044-.323.303-.538.405.065.547.461.781.646 1.215.347.315.448.858 1.072.912.024-.08.09-.118.216-.101.379-.387.033-1.048-.323-1.318zm7.41.608c-.068.377-.442.464-.324 1.013.12.02.167.112.215.203.514.208.936-.255 1.289-.507.385-.312.819-.576.857-1.215-.642-.757-1.551.182-2.038.506zm-13.636-.405c-.58.467-1.462.646-1.504 1.62.418.467 1.041-.004 1.397-.202.264-.391.74-.585.751-1.216-.191-.09-.273-.283-.644-.202zm12.453 2.025c-.201-.08-.392-.169-.645-.202-.017.118-.169.11-.321.101-.385.337-.913.67-1.289.912-.037.024-.077.167-.107.203-.028.032-.185-.034-.216 0-.04.048-.089.263-.106.303-.054.13-.137.2-.106.405.342.71 1.337.278 1.717-.1.386-.48 1.218-.54 1.18-1.419-.083-.023-.124-.084-.107-.203zM5.022 17.524c.213.102.17.448.537.405.585-.19 1.052-.491 1.073-1.215-.643-.514-1.615.073-1.61.81zm10.844-1.013h-.215c-.124.12-.122.359-.108.608.335.507.951 1.438 1.717.91.134-.598-.235-.722-.43-1.01-.369-.124-.358-.608-.964-.508z" fill="#fff"/></svg>