<svg width="13" height="16" fill="none" xmlns="http://www.w3.org/2000/svg"><path d="M8.892 10.2h.989c1.113 0 2.2.81 2.015 1.855l-.202.989c-.276 1.152-.902 1.855-2.015 1.956H3.334c-1.113-.1-1.713-.978-2.016-1.956l-.201-.99c-.245-1.012.902-1.855 2.015-1.855h.961M3.087 4.352c-.228 0-.456.188-.456.42v.838c0 .23.204.419.456.419 0 0 .682 1.676 1.137 2.305.282.39.683 1.324 2.276 1.324 1.593 0 1.994-.935 2.276-1.324.455-.63 1.138-2.305 1.138-2.305.25 0 .455-.188.455-.42v-.837c0-.232-.204-.42-.455-.42v-.628C9.914 2.257 9.013 1 6.5 1 3.997 1 3.087 2.257 3.087 3.724v.628z" stroke="#fff" stroke-miterlimit="10" stroke-linecap="round" stroke-linejoin="round"/></svg>