<svg width="16" height="21" fill="none" xmlns="http://www.w3.org/2000/svg"><path d="M8 4.188a3.48 3.48 0 00-3.223 2.13 3.465 3.465 0 00.743 3.788 3.477 3.477 0 005.94-2.448A3.478 3.478 0 008 4.188zm0 5.321a1.856 1.856 0 01-1.724-1.131 1.848 1.848 0 011.34-2.534 1.857 1.857 0 011.908.784 1.849 1.849 0 01-.223 2.335A1.855 1.855 0 018 9.51z" fill="#F2890F"/><path d="M8 0C3.808 0 .3 3.357.013 7.635a8.267 8.267 0 001.691 5.48l5.647 7.56a.81.81 0 001.3 0l5.645-7.554a8.27 8.27 0 001.692-5.481C15.7 3.357 12.192 0 8 0zm4.996 12.151L8 18.824 3.004 12.15a6.652 6.652 0 01-1.372-4.396c.202-3.007 2.64-6.129 6.37-6.129 3.731 0 6.164 3.11 6.366 6.122a6.652 6.652 0 01-1.372 4.403z" fill="#F2890F"/></svg>