<svg width="28" height="28" fill="none" xmlns="http://www.w3.org/2000/svg"><path fill-rule="evenodd" clip-rule="evenodd" d="M14 28c7.732 0 14-6.268 14-14S21.732 0 14 0 0 6.268 0 14s6.268 14 14 14zm5.909-12.22a28.255 28.255 0 01-.441-.406c-.496-.466-.528-.737-.129-1.273.232-.313.472-.62.713-.925a43.893 43.893 0 00.675-.873c.394-.527.79-1.055.997-1.684.137-.416.016-.6-.427-.673a1.438 1.438 0 00-.232-.013l-2.627-.002c-.323-.006-.502.13-.616.407a15.24 15.24 0 01-.498 1.106c-.417.818-.884 1.608-1.537 2.277l-.028.029c-.138.141-.291.3-.517.228-.301-.107-.39-.585-.385-.746l-.002-2.922c-.06-.417-.155-.603-.584-.685h-2.73c-.363 0-.546.136-.74.355-.112.127-.146.21.085.252.452.083.707.366.775.803.109.7.1 1.401.038 2.104-.019.204-.055.41-.139.6-.132.3-.345.362-.625.177-.253-.167-.43-.404-.605-.641a13.968 13.968 0 01-1.602-2.862c-.124-.292-.336-.469-.656-.473a68.004 68.004 0 00-2.364 0c-.475.008-.616.23-.423.645.858 1.84 1.813 3.63 3.06 5.258.64.836 1.376 1.575 2.325 2.098 1.076.594 2.235.772 3.456.716.57-.025.743-.17.769-.717.019-.376.062-.75.254-1.086.188-.332.474-.395.804-.188.165.103.303.233.435.372l.309.331c.215.232.43.464.656.686.418.41.915.652 1.538.602l2.415.001c.388-.025.59-.484.367-.902a4.57 4.57 0 00-.582-.808c-.363-.419-.772-.793-1.183-1.167z" fill="#C6C4C2"/></svg>