<svg width="28" height="28" fill="none" xmlns="http://www.w3.org/2000/svg"><path d="M16.68 14a2.68 2.68 0 11-5.36 0 2.68 2.68 0 015.36 0z" fill="#C6C4C2"/><path d="M20.267 9.259a2.49 2.49 0 00-.601-.924 2.489 2.489 0 00-.925-.602c-.283-.11-.709-.24-1.492-.276-.848-.04-1.102-.047-3.249-.047-2.147 0-2.4.008-3.249.046-.783.036-1.21.167-1.492.277-.35.129-.665.335-.925.602a2.49 2.49 0 00-.601.924c-.11.283-.241.709-.277 1.493-.038.847-.047 1.101-.047 3.248 0 2.147.009 2.4.047 3.249.036.784.167 1.21.277 1.492.129.35.334.665.601.925.26.267.575.472.925.601.283.11.709.241 1.492.277.848.039 1.102.047 3.249.047 2.147 0 2.4-.008 3.248-.047.784-.036 1.21-.167 1.493-.277a2.662 2.662 0 001.526-1.526c.11-.283.24-.708.277-1.492.038-.848.046-1.102.046-3.249 0-2.146-.008-2.4-.046-3.248-.036-.784-.167-1.21-.277-1.493zM14 18.129a4.128 4.128 0 110-8.257 4.128 4.128 0 010 8.256zm4.291-7.456a.965.965 0 110-1.93.965.965 0 010 1.93z" fill="#C6C4C2"/><path d="M14 0C6.27 0 0 6.27 0 14s6.27 14 14 14 14-6.27 14-14S21.73 0 14 0zm7.99 17.314c-.038.856-.174 1.44-.373 1.952a4.11 4.11 0 01-2.351 2.35c-.511.2-1.096.335-1.951.375-.858.039-1.132.048-3.315.048s-2.457-.01-3.314-.048c-.856-.04-1.44-.175-1.952-.374a3.937 3.937 0 01-1.424-.927 3.94 3.94 0 01-.927-1.424c-.198-.511-.334-1.096-.373-1.951-.04-.858-.05-1.132-.05-3.315s.01-2.457.05-3.314c.038-.856.174-1.44.373-1.952A3.938 3.938 0 017.31 7.31a3.949 3.949 0 011.424-.927c.512-.199 1.096-.334 1.952-.374.857-.039 1.13-.048 3.314-.048 2.183 0 2.457.01 3.314.049.856.039 1.44.174 1.952.373a3.941 3.941 0 011.424.927c.409.402.725.888.927 1.424.199.512.335 1.096.374 1.952.039.857.048 1.13.048 3.314 0 2.183-.01 2.457-.048 3.314z" fill="#C6C4C2"/></svg>