<svg width="30" height="30" fill="none" xmlns="http://www.w3.org/2000/svg"><path d="M18.516 7.09a2.64 2.64 0 00-2.637 2.637 2.64 2.64 0 002.637 2.636 2.64 2.64 0 002.636-2.636 2.64 2.64 0 00-2.636-2.637zm0 3.515a.88.88 0 010-1.757.88.88 0 010 1.757zM11.484 7.09a2.64 2.64 0 00-2.636 2.637 2.64 2.64 0 002.636 2.636 2.64 2.64 0 002.637-2.636 2.64 2.64 0 00-2.637-2.637zm0 3.515a.88.88 0 010-1.757.88.88 0 010 1.757z" fill="#fff"/><path d="M27.363 14.121h-2.695V9.727C24.668 4.363 20.331 0 15 0 9.67 0 5.332 4.363 5.332 9.727v4.394H2.637A2.64 2.64 0 000 16.758v1.758a2.64 2.64 0 002.637 2.636 2.73 2.73 0 002.365-1.379l.227.113-1.64 9.079A.879.879 0 004.452 30h21.094a.879.879 0 00.865-1.035l-1.64-9.079.226-.113a2.728 2.728 0 002.365 1.38A2.64 2.64 0 0030 18.515v-1.758a2.64 2.64 0 00-2.637-2.637zm.88 4.395a.88.88 0 01-.88.879c-.5 0-.937-.411-.937-.88a.879.879 0 00-1.272-.785l-3.516 1.757a.879.879 0 10.786 1.573l.709-.355 1.362 7.537h-3.343v-2.695a.879.879 0 00-1.758 0v2.695H15.88V23.79a.879.879 0 00-1.758 0v4.453h-3.516v-2.695a.879.879 0 00-1.757 0v2.695H5.505l1.362-7.537.709.355a.879.879 0 00.786-1.573L4.846 17.73a.879.879 0 00-1.272.786c0 .468-.438.879-.937.879a.88.88 0 01-.88-.88v-1.757a.88.88 0 01.88-.88h5.332a.879.879 0 000-1.757h-.88V9.727c0-4.394 3.55-7.97 7.911-7.97 4.362 0 7.91 3.576 7.91 7.97v4.394h-.879a.879.879 0 000 1.758h5.332a.88.88 0 01.88.879v1.758z" fill="#fff"/><path d="M15 12.363A2.64 2.64 0 0012.363 15v1.758A2.64 2.64 0 0015 19.395a2.64 2.64 0 002.637-2.637V15A2.64 2.64 0 0015 12.363zm.879 4.395a.88.88 0 01-1.758 0V15a.88.88 0 011.758 0v1.758z" fill="#fff"/></svg>