<svg width="16" height="16" fill="none" xmlns="http://www.w3.org/2000/svg"><path d="M10.638 3.884v.001a.435.435 0 00.01.433c.069.123.2.23.367.23h3.237v2.715a2.152 2.152 0 00-.806-.165 2.303 2.303 0 000 4.604c.29 0 .558-.069.806-.17v2.72H4.548v-3.237a.434.434 0 00-.226-.368.435.435 0 00-.429-.017h0l-.003.002A1.424 1.424 0 011.747 9.4 1.426 1.426 0 013.89 8.163h0l.003.001c.142.08.307.054.428-.016a.429.429 0 00.227-.363V4.548h3.237a.432.432 0 00.368-.23.435.435 0 00.01-.433h0l-.001-.001a1.334 1.334 0 01-.191-.707c0-.79.633-1.43 1.429-1.43a1.426 1.426 0 011.238 2.137zM9.4.875a2.307 2.307 0 00-2.302 2.302c0 .175.023.34.06.498h-3.05a.433.433 0 00-.302.131.433.433 0 00-.131.303v3.05a2.128 2.128 0 00-.498-.061A2.307 2.307 0 00.875 9.4a2.307 2.307 0 002.302 2.302c.175 0 .34-.023.498-.06v3.05c0 .118.055.226.131.302a.433.433 0 00.303.131H14.69a.433.433 0 00.303-.131.433.433 0 00.131-.303V10.79a.442.442 0 00-.256-.4.439.439 0 00-.471.076 1.419 1.419 0 01-.952.364 1.42 1.42 0 01-1.43-1.429c0-.796.633-1.43 1.43-1.43.366 0 .7.132.951.36a.43.43 0 00.467.076.445.445 0 00.261-.395V4.109a.433.433 0 00-.131-.303.433.433 0 00-.303-.131h-3.05a2.13 2.13 0 00.061-.498A2.307 2.307 0 009.4.875z" fill="#fff" stroke="#fff" stroke-width=".25"/></svg>