<svg width="30" height="30" fill="none" xmlns="http://www.w3.org/2000/svg"><path d="M29.121 7.09a.879.879 0 00-.879.879v.879h-1.816V4.395A4.4 4.4 0 0022.03 0H7.97a4.4 4.4 0 00-4.395 4.395v4.453H1.758v-.88a.879.879 0 00-1.758 0V15a.879.879 0 001.758 0v-.879h1.816v4.395C3.574 24.848 8.7 30 15 30s11.426-5.152 11.426-11.484V14.12h1.816V15A.879.879 0 0030 15V7.969a.879.879 0 00-.879-.88zM3.574 12.363H1.758v-1.758h1.816v1.758zm21.094 6.153c0 5.363-4.337 9.726-9.668 9.726-5.33 0-9.668-4.363-9.668-9.726v-9.82a2.625 2.625 0 002.637-.522 2.626 2.626 0 003.516 0 2.626 2.626 0 003.515 0 2.626 2.626 0 003.516 0 2.626 2.626 0 003.515 0 2.626 2.626 0 002.637.522v9.82zm0-12.305a.88.88 0 01-1.758 0 .879.879 0 00-1.758 0 .88.88 0 01-1.758 0 .879.879 0 00-1.757 0 .88.88 0 01-1.758 0 .879.879 0 00-1.758 0 .88.88 0 01-1.758 0 .879.879 0 00-1.758 0 .88.88 0 01-1.757 0 .879.879 0 00-1.758 0 .88.88 0 01-1.758 0V4.395a2.64 2.64 0 012.637-2.637H22.03a2.64 2.64 0 012.637 2.637V6.21zm3.574 6.152h-1.816v-1.758h1.816v1.758z" fill="#fff"/><path d="M22.91 11.484a.879.879 0 00-1.758 0 .88.88 0 01-.879.88h-2.787a.873.873 0 01-.622-.258 2.64 2.64 0 00-3.729 0 .873.873 0 01-.62.257H9.726a.88.88 0 01-.88-.879.879.879 0 00-1.757 0c0 .44.108.853.299 1.218a3.52 3.52 0 003.217 4.935 3.52 3.52 0 003.477-4.033c.104-.077.202-.162.296-.255a.88.88 0 011.242 0c.093.093.192.178.296.255a3.52 3.52 0 003.477 4.033 3.52 3.52 0 003.217-4.935c.19-.365.3-.779.3-1.218zM10.605 15.88a1.76 1.76 0 01-1.75-1.907c.273.096.566.143.872.143h2.636c0 .97-.788 1.764-1.758 1.764zm8.79 0a1.76 1.76 0 01-1.758-1.758h2.636c.306 0 .6-.053.872-.149a1.76 1.76 0 01-1.751 1.907z" fill="#fff"/><path d="M16.758 17.637a.879.879 0 00-.88.879v.879h-1.757v-.88a.879.879 0 00-1.758 0v1.758c0 .486.394.88.88.88h3.515a.879.879 0 00.879-.88v-1.757a.879.879 0 00-.88-.88zm1.758 5.332h-7.032a.879.879 0 000 1.758h7.032a.879.879 0 000-1.758z" fill="#fff"/></svg>