<svg width="28" height="28" fill="none" xmlns="http://www.w3.org/2000/svg"><circle cx="14" cy="14" r="14" fill="#4F779F"/><path fill-rule="evenodd" clip-rule="evenodd" d="M19.468 15.374c.55.518 1.13 1.004 1.623 1.574.218.253.424.514.582.808.223.418.02.877-.368.902H18.89c-.622.049-1.12-.193-1.537-.603-.334-.328-.644-.678-.966-1.017a2.263 2.263 0 00-.434-.372c-.33-.207-.616-.144-.804.188-.192.337-.236.71-.254 1.086-.026.548-.198.692-.77.717-1.22.056-2.379-.122-3.455-.716-.949-.523-1.685-1.262-2.325-2.098-1.247-1.629-2.202-3.418-3.06-5.258-.193-.414-.052-.637.422-.644a68.005 68.005 0 012.365-.001c.32.004.532.181.655.473.427 1.01.948 1.97 1.603 2.862.174.237.352.474.605.641.28.185.493.123.625-.177.084-.19.12-.396.14-.6.062-.703.07-1.404-.04-2.104-.067-.437-.322-.72-.774-.803-.231-.042-.197-.125-.085-.252.194-.219.377-.355.74-.355h2.73c.43.082.525.268.583.684l.003 2.923c-.005.16.083.64.385.746.241.076.4-.11.545-.257.653-.669 1.12-1.459 1.536-2.277a14.6 14.6 0 00.498-1.106c.114-.277.294-.413.617-.407l2.627.002c.078 0 .157.001.232.013.443.073.564.257.427.673-.215.654-.634 1.199-1.044 1.746-.438.584-.907 1.148-1.34 1.736-.4.536-.368.807.128 1.273z" fill="#fff"/></svg>